<svg id="Layer_1" data-name="Layer 1" xmlns="http://www.w3.org/2000/svg" viewBox="0 0 1256.22 288.03"><defs><style>.cls-1{fill:#b5b5b6;}.cls-2{fill:#082241;}.cls-3{fill:#fff;}.cls-4{fill:#00a6d9;}.cls-5{fill:#1d89ca;}.cls-6,.cls-7{fill:none;stroke:#1d89ca;stroke-linecap:round;stroke-linejoin:round;}.cls-6{stroke-width:1.17px;}.cls-7{stroke-width:1.01px;}</style></defs><ellipse class="cls-1" cx="150.54" cy="145.47" rx="108.3" ry="106.79"/><circle class="cls-2" cx="155.4" cy="151.35" r="102.63"/><path class="cls-3" d="M155.4,53.05a98.3,98.3,0,1,1-98.3,98.3,98.3,98.3,0,0,1,98.3-98.3m0-8.67A107,107,0,1,0,231,75.71,106.29,106.29,0,0,0,155.4,44.38Z"/><path class="cls-3" d="M137.75,191,160,184s-2.6,25.4-31.81,25.94l8.87-7.23Z"/><path class="cls-3" d="M109.51,154.23l13.07-21.9s-25.27-3.8-34.12,27.18L98,151.93Z"/><path class="cls-1" d="M124.57,195.27s-30.74,22.11-19,45c0,0,12.7,20.68,47.11,10.65,0,0-25.6,14.74-54.68.61,0,0-40.75-22.73,5.53-81.71Z"/><path class="cls-3" d="M102.66,176.53s-52.94,55.8,7.88,78.53c0,0-29.18-30,5.64-60.51Z"/><path class="cls-4" d="M219.39,92.26l-64.72,11.06L112.9,159.51s1.09,19.17,20.75,26c0,0,60.75-27.85,66.49-33.45Z"/><polygon class="cls-3" points="199.93 102.19 206.43 109.36 197.2 144.82 187.24 144.82 189.35 132.26 173.79 132.4 174.81 115.88 162.12 117.65 162.12 108.92 199.93 102.19"/><polygon class="cls-3" points="155.9 110.74 123.14 152.57 155.9 118.47 155.9 110.74"/><polygon class="cls-3" points="120.17 168.03 158.26 124.52 166.45 124.52 166.45 133.73 120.17 168.03"/><polygon class="cls-3" points="132.76 173.76 172.8 138.95 181.71 138.13 180.89 147.14 132.76 173.76"/><polygon class="cls-3" points="144.85 174.79 184.27 150.83 194.09 150.83 144.85 174.79"/><polygon class="cls-3" points="87.37 118.41 88.86 121.44 92.21 121.93 89.79 124.29 90.36 127.62 87.37 126.05 84.38 127.62 84.95 124.29 82.53 121.93 85.87 121.44 87.37 118.41"/><polygon class="cls-3" points="74.73 170.1 75.47 171.62 77.15 171.86 75.94 173.04 76.22 174.7 74.73 173.92 73.23 174.7 73.52 173.04 72.31 171.86 73.98 171.62 74.73 170.1"/><polygon class="cls-3" points="136.17 109.86 136.92 111.37 138.59 111.62 137.38 112.8 137.67 114.46 136.17 113.68 134.68 114.46 134.96 112.8 133.75 111.62 135.43 111.37 136.17 109.86"/><polygon class="cls-3" points="109.9 87.63 110.38 88.59 111.44 88.74 110.67 89.49 110.85 90.55 109.9 90.05 108.95 90.55 109.13 89.49 108.37 88.74 109.43 88.59 109.9 87.63"/><polygon class="cls-3" points="149.73 72.7 151.06 75.41 154.05 75.84 151.89 77.95 152.4 80.92 149.73 79.52 147.06 80.92 147.57 77.95 145.41 75.84 148.4 75.41 149.73 72.7"/><polygon class="cls-3" points="204.5 83.73 205.1 84.94 206.44 85.13 205.47 86.08 205.7 87.41 204.5 86.78 203.31 87.41 203.54 86.08 202.57 85.13 203.91 84.94 204.5 83.73"/><polygon class="cls-3" points="235.46 121.34 236.11 122.66 237.57 122.87 236.51 123.9 236.76 125.35 235.46 124.66 234.16 125.35 234.41 123.9 233.35 122.87 234.81 122.66 235.46 121.34"/><polygon class="cls-3" points="233.93 147.88 235.49 151.05 238.97 151.55 236.45 154.01 237.04 157.49 233.93 155.85 230.81 157.49 231.4 154.01 228.88 151.55 232.37 151.05 233.93 147.88"/><polygon class="cls-3" points="210.15 202.11 211.58 205 214.77 205.46 212.46 207.71 213 210.88 210.15 209.39 207.3 210.88 207.85 207.71 205.54 205.46 208.73 205 210.15 202.11"/><polygon class="cls-3" points="191.81 183.74 192.55 185.23 194.19 185.47 193 186.64 193.28 188.28 191.81 187.5 190.33 188.28 190.62 186.64 189.42 185.47 191.07 185.23 191.81 183.74"/><polygon class="cls-3" points="183.28 219.36 183.81 220.44 184.99 220.61 184.13 221.45 184.34 222.63 183.28 222.07 182.21 222.63 182.42 221.45 181.56 220.61 182.75 220.44 183.28 219.36"/><path class="cls-2" d="M353.47,184a27.1,27.1,0,0,1-11.33,10.65q-7.59,4-18.62,4a46.52,46.52,0,0,1-19.23-3.8,33.44,33.44,0,0,1-13.56-10.65,30.27,30.27,0,0,1-5.81-15.8H303.1A18.68,18.68,0,0,0,309,180.24q5.13,4.9,13.78,4.91,7.75,0,12-4.17A14.39,14.39,0,0,0,339,170.25a13.78,13.78,0,0,0-3.13-9.31,21.86,21.86,0,0,0-7.74-5.74q-4.62-2.08-12.67-4.77a109,109,0,0,1-16-6.26,29,29,0,0,1-10.51-9.09q-4.32-6-4.32-15.64a26.66,26.66,0,0,1,4.18-14.91,27.12,27.12,0,0,1,11.92-9.9,42.89,42.89,0,0,1,17.88-3.51q16.09,0,25.56,7.75A29.26,29.26,0,0,1,355,119.14H336.63A17.91,17.91,0,0,0,331,108.93q-4.55-4.25-12.44-4.25-7.16,0-11.48,3.65t-4.32,10.51a13.25,13.25,0,0,0,3,8.87,20.79,20.79,0,0,0,7.53,5.51q4.54,2,12.44,4.69a109,109,0,0,1,16.32,6.34,29.63,29.63,0,0,1,10.73,9.31q4.4,6.12,4.39,16.09A28.93,28.93,0,0,1,353.47,184Z"/><path class="cls-2" d="M437.06,122.94q10.44,8.42,13,22.87H432a19.33,19.33,0,0,0-7.23-12.14q-5.73-4.39-14.38-4.4A21.62,21.62,0,0,0,394,136.2q-6.56,6.93-6.56,20.34T394,177a21.5,21.5,0,0,0,16.39,7q8.64,0,14.38-4.47A19.63,19.63,0,0,0,432,167.27h18q-2.53,14.46-13,22.95t-26.37,8.49a42.84,42.84,0,0,1-21.09-5.06A36.07,36.07,0,0,1,375.22,179q-5.22-9.53-5.21-22.5,0-12.81,5.21-22.35a36,36,0,0,1,14.38-14.6,42.85,42.85,0,0,1,21.09-5.07Q426.64,114.52,437.06,122.94Z"/><path class="cls-2" d="M535.27,123.46q8.64,9.24,8.64,26.38v47.83h-17v-46q0-11-5.66-17.06t-15.5-6q-10.14,0-16.24,6.48t-6.11,19v43.66h-17V87.4h17v46.19a27.57,27.57,0,0,1,11-14.3,32,32,0,0,1,17.89-5.07Q526.62,114.22,535.27,123.46Z"/><path class="cls-2" d="M622.74,119.59a36.37,36.37,0,0,1,14.9,14.6q5.36,9.54,5.36,22.35,0,13-5.36,22.5a36.45,36.45,0,0,1-14.9,14.61,45,45,0,0,1-21.46,5.06,44.51,44.51,0,0,1-21.38-5.06A36.82,36.82,0,0,1,565,179q-5.43-9.61-5.44-22.43T565,134.19a36.88,36.88,0,0,1,14.91-14.6,44.51,44.51,0,0,1,21.38-5.07A45,45,0,0,1,622.74,119.59Zm-33.53,12.66a22,22,0,0,0-8.87,9.17Q577,147.6,577,156.54q0,9.09,3.35,15.2a22,22,0,0,0,8.87,9.09,25.93,25.93,0,0,0,24.14,0,22,22,0,0,0,8.87-9.09q3.35-6.11,3.35-15.2,0-8.94-3.35-15.12a22,22,0,0,0-8.87-9.17,25.93,25.93,0,0,0-24.14,0Z"/><path class="cls-2" d="M676.38,87.4V197.67h-17V87.4Z"/><path class="cls-2" d="M749,120a29.71,29.71,0,0,1,11.18,14.61V115.56h17v82.11h-17V178.6A29.64,29.64,0,0,1,749,193.2q-7.89,5.52-19.07,5.51a36.39,36.39,0,0,1-19.15-5.06A34.68,34.68,0,0,1,697.54,179q-4.77-9.53-4.77-22.5,0-12.81,4.77-22.35a34.59,34.59,0,0,1,13.19-14.6,36.39,36.39,0,0,1,19.15-5.07Q741.06,114.52,749,120Zm-32,16.62q-6.78,7.23-6.78,19.89t6.78,19.9q6.78,7.23,18.1,7.22a24.65,24.65,0,0,0,12.82-3.35,23.86,23.86,0,0,0,8.94-9.46,32.68,32.68,0,0,0,0-28.54,23.75,23.75,0,0,0-8.94-9.54,24.75,24.75,0,0,0-12.82-3.35Q723.76,129.42,717,136.65Z"/><path class="cls-2" d="M826.44,118.91a33.88,33.88,0,0,1,17.88-4.69V132.7h-5.06q-11.19,0-18,5.44t-6.78,18v41.58h-17V115.56h17v16.1A31.62,31.62,0,0,1,826.44,118.91Z"/><path class="cls-2" d="M936.11,101.26q12.82,9.83,17.29,26.67h-18a32,32,0,0,0-11.85-15.13q-8.12-5.58-19.89-5.58a30.94,30.94,0,0,0-16.77,4.62A31.76,31.76,0,0,0,875.24,125a44.61,44.61,0,0,0-4.25,20A44.25,44.25,0,0,0,875.24,165a31.82,31.82,0,0,0,11.62,13.19,30.94,30.94,0,0,0,16.77,4.62q11.77,0,19.89-5.59a32.1,32.1,0,0,0,11.85-15h18q-4.47,16.85-17.29,26.6t-32.18,9.76q-14.91,0-26.38-6.78a45.87,45.87,0,0,1-17.73-18.92q-6.26-12.15-6.26-27.79t6.26-27.79a46.38,46.38,0,0,1,17.73-19,50.43,50.43,0,0,1,26.38-6.86Q923.3,91.42,936.11,101.26Z"/><path class="cls-2" d="M999.3,118.91a33.88,33.88,0,0,1,17.88-4.69V132.7h-5.07q-11.18,0-18,5.44t-6.78,18v41.58h-17V115.56h17v16.1A31.64,31.64,0,0,1,999.3,118.91Z"/><path class="cls-2" d="M1105.54,160h-63.18q.45,12.66,7,18.78a23,23,0,0,0,16.25,6.11,23.59,23.59,0,0,0,14.38-4.33,17.82,17.82,0,0,0,7.22-11.47h18.18A34.85,34.85,0,0,1,1085,194.91a44.35,44.35,0,0,1-18.63,3.8,42.8,42.8,0,0,1-21.08-5.06A36.09,36.09,0,0,1,1030.88,179q-5.2-9.53-5.21-22.5,0-12.81,5.21-22.35a36,36,0,0,1,14.39-14.6,42.81,42.81,0,0,1,21.08-5.07q12.08,0,21.09,5a34.77,34.77,0,0,1,13.86,13.71,42.3,42.3,0,0,1,4.24,26.75Zm-19.3-21.24a19.18,19.18,0,0,0-8.34-8,25.76,25.76,0,0,0-11.55-2.61,23.86,23.86,0,0,0-16.69,6.11q-6.71,6.1-7.3,18H1089Q1089.3,144.18,1086.24,138.73Z"/><path class="cls-2" d="M1174.54,120a28.85,28.85,0,0,1,11,14.61V87.4h17.14V197.67h-17.14V178.6a28.78,28.78,0,0,1-11,14.6q-7.9,5.52-19.08,5.51a36.39,36.39,0,0,1-19.15-5.06A34.68,34.68,0,0,1,1123.12,179q-4.77-9.53-4.76-22.5,0-12.81,4.76-22.35a34.59,34.59,0,0,1,13.19-14.6,36.39,36.39,0,0,1,19.15-5.07Q1166.64,114.52,1174.54,120Zm-32,16.62q-6.78,7.23-6.78,19.89t6.78,19.9q6.78,7.23,18.11,7.22a24.59,24.59,0,0,0,12.81-3.35,23.79,23.79,0,0,0,8.94-9.46,32.68,32.68,0,0,0,0-28.54,23.68,23.68,0,0,0-8.94-9.54,24.68,24.68,0,0,0-12.81-3.35Q1149.36,129.42,1142.57,136.65Z"/><polygon class="cls-5" points="336.82 92.38 318.86 101.35 300.97 92.38 300.97 83.21 336.82 83.21 336.82 92.38"/><polygon class="cls-2" points="318.88 67.58 295.29 80.24 318.88 92.89 342.48 80.24 318.88 67.58"/><polyline class="cls-6" points="336.24 86.78 336.24 92.6 318.9 101.89 318.88 101.89 301.55 92.6 301.55 86.78"/><polygon class="cls-2" points="298.18 94.34 294.65 94.34 294.65 84.17 296.42 81.5 298.18 84.17 298.18 94.34"/><line class="cls-7" x1="339.88" y1="99.29" x2="339.88" y2="83.58"/><polygon class="cls-7" points="337.27 101.89 339.88 99.29 342.48 101.89 337.27 101.89"/></svg>