<svg id="Layer_1" data-name="Layer 1" xmlns="http://www.w3.org/2000/svg" viewBox="0 0 500 500"><defs><style>.cls-1{fill:#b5b5b6;}.cls-2{fill:#082241;}.cls-3{fill:#fff;}.cls-4{fill:#00a6d9;}</style></defs><ellipse class="cls-1" cx="250" cy="244.32" rx="226.25" ry="223.09"/><path class="cls-2" d="M260.14,471a214.39,214.39,0,0,1-151.6-366,214.39,214.39,0,1,1,303.2,303.2A213,213,0,0,1,260.14,471Z"/><path class="cls-3" d="M260.14,51.25c113.41,0,205.35,91.93,205.35,205.34S373.55,461.93,260.14,461.93,54.8,370,54.8,256.59,146.73,51.25,260.14,51.25m0-18.11a223.51,223.51,0,0,0-87,429.34,223.51,223.51,0,1,0,87-429.34Z"/><path class="cls-3" d="M223.27,339.35l46.49-14.54s-5.42,53-66.46,54.19l18.54-15.12Z"/><path class="cls-3" d="M164.28,262.62l27.3-45.76s-52.79-7.93-71.28,56.78l19.88-15.84Z"/><path class="cls-1" d="M195.75,348.34s-64.22,46.2-39.81,94.11c0,0,26.54,43.21,98.42,22.25,0,0-53.48,30.8-114.23,1.28,0,0-85.13-47.48,11.55-170.69Z"/><path class="cls-3" d="M150,309.19S39.39,425.77,166.44,473.25c0,0-61-62.67,11.77-126.41Z"/><path class="cls-4" d="M393.82,133.15l-135.19,23.1L171.36,273.64s2.28,40,43.35,54.3c0,0,126.92-58.18,138.89-69.87Z"/><polygon class="cls-3" points="353.18 153.9 366.76 168.88 347.47 242.96 326.65 242.96 331.07 216.72 298.56 217 300.7 182.49 274.18 186.2 274.18 167.95 353.18 153.9"/><polygon class="cls-3" points="261.2 171.76 192.75 259.14 261.2 187.91 261.2 171.76"/><polygon class="cls-3" points="186.55 291.44 266.12 200.53 283.23 200.53 283.23 219.78 186.55 291.44"/><polygon class="cls-3" points="212.86 303.42 296.49 230.69 315.1 228.98 313.39 247.8 212.86 303.42"/><polygon class="cls-3" points="238.1 305.56 320.47 255.5 340.99 255.5 238.1 305.56"/><polygon class="cls-3" points="118.03 187.78 121.16 194.11 128.14 195.13 123.09 200.06 124.28 207.02 118.03 203.73 111.78 207.02 112.97 200.06 107.92 195.13 114.9 194.11 118.03 187.78"/><polygon class="cls-3" points="91.62 295.76 93.18 298.93 96.68 299.43 94.15 301.9 94.75 305.38 91.62 303.74 88.49 305.38 89.09 301.9 86.56 299.43 90.06 298.93 91.62 295.76"/><polygon class="cls-3" points="219.98 169.91 221.55 173.08 225.04 173.59 222.51 176.05 223.11 179.53 219.98 177.89 216.86 179.53 217.45 176.05 214.93 173.59 218.42 173.08 219.98 169.91"/><polygon class="cls-3" points="165.1 123.47 166.09 125.48 168.31 125.8 166.7 127.36 167.08 129.57 165.1 128.53 163.12 129.57 163.5 127.36 161.9 125.8 164.11 125.48 165.1 123.47"/><polygon class="cls-3" points="248.3 92.3 251.09 97.95 257.33 98.86 252.82 103.25 253.88 109.46 248.3 106.53 242.73 109.46 243.79 103.25 239.28 98.86 245.51 97.95 248.3 92.3"/><polygon class="cls-3" points="362.73 115.33 363.98 117.86 366.77 118.26 364.75 120.23 365.23 123.01 362.73 121.7 360.24 123.01 360.71 120.23 358.69 118.26 361.48 117.86 362.73 115.33"/><polygon class="cls-3" points="427.4 193.9 428.76 196.66 431.8 197.1 429.6 199.24 430.12 202.27 427.4 200.84 424.68 202.27 425.2 199.24 423 197.1 426.04 196.66 427.4 193.9"/><polygon class="cls-3" points="424.19 249.35 427.45 255.96 434.74 257.02 429.46 262.16 430.71 269.41 424.19 265.99 417.67 269.41 418.92 262.16 413.65 257.02 420.93 255.96 424.19 249.35"/><polygon class="cls-3" points="374.53 362.63 377.51 368.67 384.17 369.63 379.35 374.33 380.49 380.96 374.53 377.83 368.57 380.96 369.71 374.33 364.89 369.63 371.55 368.67 374.53 362.63"/><polygon class="cls-3" points="336.21 324.25 337.75 327.38 341.19 327.88 338.7 330.31 339.29 333.74 336.21 332.12 333.13 333.74 333.71 330.31 331.22 327.88 334.67 327.38 336.21 324.25"/><polygon class="cls-3" points="318.38 398.67 319.49 400.92 321.97 401.28 320.18 403.03 320.6 405.5 318.38 404.33 316.16 405.5 316.59 403.03 314.79 401.28 317.27 400.92 318.38 398.67"/></svg>